<?xml version="1.0" standalone="no"?>
<!DOCTYPE svg PUBLIC "-//W3C//DTD SVG 20010904//EN"
 "http://www.w3.org/TR/2001/REC-SVG-20010904/DTD/svg10.dtd">
<svg version="1.0" xmlns="http://www.w3.org/2000/svg"
 width="1024.000000pt" height="1024.000000pt" viewBox="0 0 1024.000000 1024.000000"
 preserveAspectRatio="xMidYMid meet">

<g transform="translate(0.000000,1024.000000) scale(0.100000,-0.100000)"
fill="#000000" stroke="none">
<path d="M5089 8553 c-47 -32 -777 -553 -919 -657 -80 -58 -188 -136 -240
-174 -52 -38 -162 -117 -245 -177 -82 -60 -235 -171 -340 -246 -537 -388 -630
-457 -630 -466 0 -12 254 -233 267 -233 10 0 228 162 1788 1329 184 138 340
249 347 246 6 -2 83 -57 170 -121 87 -65 410 -303 719 -529 522 -383 873 -643
1139 -842 93 -70 112 -80 125 -69 8 7 72 59 143 115 70 57 127 104 127 106 0
2 -125 93 -277 203 -153 109 -345 247 -428 307 -203 146 -1021 731 -1170 836
-162 115 -383 270 -476 335 -74 52 -76 53 -100 37z"/>
<path d="M4998 7637 c-59 -45 -155 -118 -213 -162 -58 -44 -171 -129 -250
-190 -683 -522 -657 -504 -680 -485 -8 7 -15 28 -15 47 0 19 -4 33 -9 31 -18
-7 -201 -143 -201 -150 0 -8 158 -138 177 -145 6 -3 102 64 213 149 398 303
619 471 833 636 120 92 229 173 242 181 23 14 28 11 121 -60 151 -116 894
-678 943 -713 24 -17 91 -68 149 -113 57 -46 107 -83 110 -83 6 0 108 78 159
121 l32 28 -97 73 c-53 41 -113 85 -132 98 l-35 25 27 -33 c27 -32 28 -50 5
-79 -16 -21 -32 -15 -94 32 -32 25 -191 145 -353 267 -162 122 -311 233 -330
248 -320 243 -479 360 -490 360 -3 0 -53 -37 -112 -83z"/>
<path d="M5064 7396 c-28 -22 -103 -81 -167 -130 -64 -49 -114 -93 -110 -99 3
-6 1 -7 -5 -3 -7 4 -41 -16 -79 -46 -105 -83 -182 -141 -213 -163 -15 -11 -72
-54 -126 -95 -53 -41 -145 -111 -203 -155 l-106 -80 -3 -401 -2 -402 53 -113
c108 -230 260 -539 264 -535 2 2 -3 24 -12 49 -13 39 -15 139 -13 773 l3 728
25 13 c22 11 28 10 45 -8 20 -19 20 -36 25 -798 3 -429 8 -782 12 -786 3 -4
46 -7 95 -8 l88 -2 0 883 c0 774 2 884 15 892 24 15 48 12 70 -10 20 -20 20
-34 20 -912 l1 -893 20 38 c11 21 17 43 13 49 -4 6 -3 8 3 5 5 -3 84 144 178
336 214 437 204 417 323 650 56 108 102 202 102 207 0 6 -43 10 -109 10 l-108
0 -6 68 c-4 37 -7 95 -7 130 l0 62 130 0 130 0 0 -117 0 -118 382 5 383 5 2
105 3 105 -113 84 c-300 226 -769 580 -827 626 -36 29 -76 58 -90 66 -14 8
-27 17 -30 20 -3 4 -28 -12 -56 -35z m20 -418 c3 -13 6 -74 6 -135 l0 -113
-130 0 -130 0 0 135 0 135 124 0 c120 0 124 -1 130 -22z m326 -112 c0 -116 -2
-135 -16 -138 -9 -2 -65 -2 -125 0 l-108 3 -3 127 c-2 70 -2 130 0 135 2 4 59
7 128 7 l124 0 0 -134z m431 -28 c3 -5 7 -73 8 -150 2 -113 -1 -144 -14 -164
-22 -35 -53 -31 -69 9 -18 43 -13 307 6 319 15 10 60 1 69 -14z m-753 -308 c1
-63 -2 -122 -8 -130 -10 -17 -154 -27 -215 -16 l-35 7 0 130 0 130 128 -3 127
-3 3 -115z m68 -304 c21 -22 27 -67 19 -151 l-7 -75 -33 0 c-28 0 -33 4 -39
31 -3 17 -6 62 -6 98 0 54 4 72 20 89 24 26 27 26 46 8z"/>
<path d="M4389 7293 c-13 -16 -12 -17 4 -4 9 7 17 15 17 17 0 8 -8 3 -21 -13z"/>
<path d="M2310 5671 l0 -626 94 -23 c52 -12 126 -36 165 -52 l71 -29 0 680 0
680 -165 -2 -165 -2 0 -626z"/>
<path d="M7628 6293 l-28 -4 0 -674 0 -674 53 24 c52 22 191 67 250 80 l27 5
-2 623 -3 622 -135 1 c-74 1 -147 -1 -162 -3z"/>
<path d="M3279 6203 c-224 -3 -247 -5 -251 -21 -3 -9 -3 -721 -1 -1582 1 -861
3 -1602 3 -1647 l0 -83 230 0 230 0 0 1311 c0 926 3 1308 11 1304 11 -8 61
-110 414 -845 461 -960 646 -1344 649 -1348 2 -1 14 19 27 45 121 254 752
1545 849 1738 l50 100 1 -1120 c1 -616 2 -1135 2 -1152 l0 -33 406 0 c223 0
447 5 496 10 249 28 442 111 592 254 128 121 218 271 265 441 32 118 32 357 0
468 -39 137 -103 247 -206 356 -73 76 -121 111 -241 173 -84 44 -88 47 -65 56
48 19 176 109 228 161 263 263 308 710 102 1023 -95 145 -264 277 -427 333
-151 52 -194 56 -654 53 l-426 -3 41 -80 41 -80 0 -1500 0 -1500 -29 -13 c-24
-12 -30 -12 -37 -1 -5 8 -9 478 -9 1044 0 567 -3 1061 -7 1098 -5 61 -8 68
-25 64 -18 -5 -18 10 -16 484 2 269 0 489 -4 489 -4 0 -27 -42 -52 -92 -24
-51 -196 -399 -381 -773 -186 -374 -377 -763 -425 -863 -49 -101 -90 -185 -92
-188 -5 -4 -28 44 -481 986 -184 382 -361 749 -393 815 l-59 120 -55 0 c-30 1
-166 -1 -301 -2z m-161 -85 c12 -40 26 -97 32 -127 6 -34 10 -575 10 -1513 l0
-1459 -39 -40 c-34 -35 -42 -39 -58 -29 -10 6 -12 10 -3 7 13 -4 15 168 12
1516 -2 1134 -6 1523 -14 1529 -14 8 -15 60 -4 133 6 36 5 46 -3 35 -9 -13
-11 -13 -11 3 0 12 8 17 29 17 26 0 29 -4 49 -72z m3192 -352 c108 -4 170 -26
255 -91 61 -47 81 -71 122 -147 33 -59 33 -59 43 -33 8 20 15 25 30 20 12 -4
20 -2 20 5 0 6 6 18 14 25 25 25 49 -72 49 -195 0 -87 -4 -117 -26 -178 -69
-196 -226 -342 -423 -392 -60 -16 -111 -20 -229 -20 l-152 0 -6 98 c-8 115 -9
906 -2 914 5 5 49 4 305 -6z m101 -1462 c85 -26 143 -59 213 -125 112 -104
146 -182 155 -349 l6 -114 50 3 c27 1 54 8 58 14 13 18 -3 -62 -23 -121 -56
-159 -208 -297 -395 -359 -73 -24 -97 -27 -271 -31 l-191 -4 -6 123 c-4 67 -7
315 -7 551 l0 428 178 0 c135 0 192 -4 233 -16z"/>
<path d="M2154 4840 c-297 -43 -493 -323 -431 -617 34 -155 136 -291 270 -356
39 -19 87 -38 105 -42 l32 -7 0 -189 0 -189 -152 -1 c-84 -1 -160 0 -168 1
-10 1 -7 -7 10 -25 30 -33 284 -237 397 -320 l82 -60 1 -335 c0 -184 3 -352 6
-373 l7 -37 2808 0 2809 0 1 373 0 372 82 60 c143 105 417 328 417 340 0 3
-71 5 -157 4 l-158 -2 0 193 0 192 57 18 c115 35 200 101 268 205 133 204 110
461 -57 637 -109 113 -218 160 -373 161 -165 0 -288 -50 -393 -162 -136 -145
-178 -338 -116 -525 59 -176 226 -317 392 -333 l67 -6 0 -188 0 -189 -247 -2
c-137 -1 -259 -2 -273 -3 l-25 -1 -3 -131 -3 -132 90 -3 90 -3 5 -235 c4 -129
3 -254 0 -277 l-6 -43 -2474 0 -2474 0 0 280 0 280 90 0 90 0 0 136 0 136
-270 -7 -270 -8 0 191 0 190 66 12 c135 26 258 108 332 222 110 171 115 374
14 548 -41 69 -141 162 -214 198 -94 46 -222 67 -324 52z m306 -330 c23 -54
-1 -143 -57 -219 -28 -36 -111 -93 -124 -85 -22 14 -6 78 42 171 86 163 115
191 139 133z m5372 3 c31 -34 120 -185 136 -232 10 -29 7 -81 -4 -81 -21 0
-89 48 -122 85 -61 70 -91 182 -62 236 14 25 21 24 52 -8z m-5787 -151 c52
-32 95 -84 95 -113 0 -37 -12 -43 -52 -26 -54 23 -108 80 -108 114 0 48 16 54
65 25z m6209 3 c26 -27 -8 -81 -83 -131 -88 -58 -95 17 -10 99 54 50 69 56 93
32z m-5747 -227 c-13 -51 -65 -106 -130 -138 -73 -36 -100 -36 -105 -2 -4 25
45 77 152 163 49 40 49 40 69 20 13 -13 18 -27 14 -43z m5367 -30 c79 -68 96
-87 96 -110 0 -23 -4 -28 -25 -28 -27 0 -85 24 -128 53 -38 26 -87 94 -87 122
0 23 17 45 36 45 6 0 55 -37 108 -82z m400 36 c24 -23 20 -40 -19 -83 -32 -35
-108 -81 -134 -81 -14 0 -24 37 -14 54 11 19 132 126 143 126 5 0 16 -7 24
-16z m-6196 -53 c62 -58 70 -73 53 -100 -19 -30 -137 35 -163 89 -21 43 -13
70 21 70 18 0 45 -19 89 -59z"/>
</g>
</svg>
