<?xml version="1.0" standalone="no"?>
<!DOCTYPE svg PUBLIC "-//W3C//DTD SVG 20010904//EN"
 "http://www.w3.org/TR/2001/REC-SVG-20010904/DTD/svg10.dtd">
<svg version="1.0" xmlns="http://www.w3.org/2000/svg"
 width="500.000000pt" height="500.000000pt" viewBox="0 0 500.000000 500.000000"
 preserveAspectRatio="xMidYMid meet">

<g transform="translate(0.000000,500.000000) scale(0.100000,-0.100000)"
fill="#000000" stroke="none">
<path d="M2365 3020 l-90 -60 -3 30 c-3 29 -5 30 -53 30 l-49 0 0 -65 0 -65
-71 -47 c-39 -26 -66 -49 -61 -51 6 -2 102 58 215 133 l205 137 206 -138 c113
-75 209 -135 212 -131 3 3 -64 52 -150 109 -85 57 -156 105 -156 108 0 3 15
15 33 26 l32 21 198 -134 c109 -74 201 -132 204 -129 4 3 4 7 2 9 -25 21 -382
259 -394 263 -9 4 -33 -5 -55 -20 l-41 -27 -44 31 c-24 16 -45 30 -47 30 -2 0
-43 -27 -93 -60z m-115 -44 c0 -25 -6 -38 -25 -50 -13 -9 -27 -16 -30 -16 -3
0 -5 23 -5 50 0 49 1 50 30 50 27 0 30 -3 30 -34z"/>
<path d="M3584 2629 c-3 -5 9 -9 25 -9 17 0 31 2 31 4 0 8 -51 13 -56 5z"/>
<path d="M1169 2511 c43 -84 47 -89 58 -68 14 25 17 49 4 28 -7 -10 -19 5 -45
57 -20 40 -42 72 -50 72 -8 0 3 -32 33 -89z"/>
<path d="M1282 2585 c-4 -9 -5 -46 0 -82 4 -36 5 -70 2 -74 -3 -5 4 -9 14 -9
18 0 19 4 10 43 -5 23 -8 63 -5 90 4 47 -4 61 -21 32z"/>
<path d="M1415 2510 c0 -73 3 -90 15 -90 12 0 15 17 15 90 0 73 -3 90 -15 90
-12 0 -15 -17 -15 -90z"/>
<path d="M1640 2593 c8 -3 23 -12 33 -21 15 -14 17 -14 17 0 0 17 -21 29 -48
27 -14 0 -14 -2 -2 -6z"/>
<path d="M1790 2524 c4 -60 9 -79 24 -90 27 -20 81 -18 97 4 11 14 11 15 -1 5
-8 -7 -26 -13 -42 -13 -42 0 -61 36 -56 110 2 48 0 60 -12 60 -12 0 -14 -13
-10 -76z"/>
<path d="M1908 2588 c7 -7 13 -39 14 -72 l2 -61 3 60 c2 32 9 65 15 72 8 10 4
13 -18 13 -22 0 -25 -3 -16 -12z"/>
<path d="M2035 2510 l0 -90 53 0 c47 0 52 2 52 23 -1 20 -2 20 -11 5 -6 -11
-22 -18 -39 -18 l-30 0 0 80 c0 78 1 80 25 80 13 0 29 -8 34 -17 9 -16 10 -16
11 5 0 20 -5 22 -47 22 l-48 0 0 -90z"/>
<path d="M2225 2510 l0 -90 58 0 c53 0 57 2 57 23 -1 20 -2 20 -11 5 -6 -12
-22 -18 -45 -18 l-35 0 3 85 c2 70 0 85 -12 85 -12 0 -15 -17 -15 -90z"/>
<path d="M2525 2510 c0 -90 0 -90 25 -89 14 0 19 3 13 6 -8 2 -13 22 -13 44 0
35 3 39 25 39 43 0 60 -79 17 -81 -11 0 -13 -2 -4 -6 17 -7 52 25 52 47 0 9
-9 25 -20 35 -14 13 -17 22 -10 29 16 16 12 44 -9 56 -28 14 -38 13 -17 -3 26
-19 18 -61 -13 -65 -22 -3 -23 -1 -19 37 3 32 0 41 -12 41 -12 0 -15 -16 -15
-90z"/>
<path d="M2735 2510 c0 -73 3 -90 15 -90 12 0 15 17 15 90 0 73 -3 90 -15 90
-12 0 -15 -17 -15 -90z"/>
<path d="M2793 2589 c21 -12 22 -47 3 -68 -13 -14 -11 -21 20 -59 23 -27 44
-42 57 -41 21 0 22 1 2 10 -11 6 -32 27 -48 47 -23 30 -25 37 -12 44 21 13 19
55 -4 68 -25 13 -42 13 -18 -1z"/>
<path d="M2965 2510 c0 -73 3 -90 15 -90 12 0 15 17 15 90 0 73 -3 90 -15 90
-12 0 -15 -17 -15 -90z"/>
<path d="M3129 2585 c-38 -20 -52 -67 -35 -110 8 -18 23 -38 34 -44 32 -17 33
-13 7 15 -35 38 -34 96 1 129 31 29 30 30 -7 10z"/>
<path d="M3207 2590 c12 -5 26 -17 32 -27 6 -10 11 -13 11 -6 0 17 -29 43 -48
42 -13 0 -11 -3 5 -9z"/>
<path d="M3335 2510 l0 -90 53 0 c42 0 52 3 52 17 0 13 -3 14 -12 5 -7 -7 -25
-12 -40 -12 l-28 0 2 78 c3 73 4 77 27 80 13 2 28 -2 32 -10 7 -10 9 -9 9 5 0
14 -9 17 -47 17 l-48 0 0 -90z"/>
<path d="M3525 2510 c0 -81 2 -90 19 -90 15 0 16 3 7 14 -7 9 -11 39 -9 75 l3
62 65 -78 65 -78 3 85 c2 52 8 87 15 92 7 5 0 8 -17 8 -23 0 -26 -3 -17 -14 7
-8 11 -38 9 -72 l-3 -58 -58 72 c-32 40 -63 72 -70 72 -8 0 -12 -26 -12 -90z"/>
<path d="M3859 2590 c44 -10 60 -28 68 -73 4 -25 0 -45 -11 -64 l-17 -28 25
28 c57 62 14 149 -71 146 -27 -1 -27 -1 6 -9z"/>
<path d="M1555 2565 c-35 -34 -33 -78 4 -116 16 -16 35 -29 41 -29 6 0 -1 11
-17 24 -34 29 -39 92 -9 125 27 29 10 26 -19 -4z"/>
<path d="M3797 2578 c-22 -18 -36 -59 -30 -91 6 -30 46 -67 72 -66 12 0 10 3
-5 11 -43 20 -59 105 -27 140 19 21 14 24 -10 6z"/>
<path d="M1256 2535 c-9 -26 -7 -32 5 -12 6 10 9 21 6 23 -2 3 -7 -2 -11 -11z"/>
<path d="M2104 2522 c-9 -5 -8 -11 2 -20 12 -11 14 -9 14 8 0 22 0 23 -16 12z"/>
<path d="M1130 2472 c-5 -47 -3 -52 15 -52 13 0 16 3 8 8 -6 4 -13 28 -15 52
l-3 45 -5 -53z"/>
<path d="M3390 2516 c0 -2 7 -6 15 -10 8 -3 15 -1 15 4 0 6 -7 10 -15 10 -8 0
-15 -2 -15 -4z"/>
<path d="M1665 2455 c0 -20 5 -35 11 -35 7 0 14 16 16 35 3 27 0 35 -12 35
-11 0 -15 -10 -15 -35z"/>
<path d="M3228 2440 c-18 -21 -13 -26 11 -11 7 5 12 14 10 20 -3 7 -11 3 -21
-9z"/>
<path d="M2044 2218 l-19 -23 25 20 c14 11 27 21 29 22 2 2 0 3 -6 3 -5 0 -18
-10 -29 -22z"/>
<path d="M2404 2215 c-12 -18 -26 -25 -53 -27 l-36 -1 33 -4 c28 -4 32 -7 26
-26 -3 -12 -15 -37 -25 -55 -10 -18 -15 -30 -9 -27 5 3 10 -3 10 -14 0 -14 6
-21 18 -20 10 0 12 3 5 6 -17 6 -16 30 3 86 l16 47 66 2 67 2 -63 3 -64 4 16
24 c9 14 14 25 11 25 -2 0 -12 -11 -21 -25z"/>
<path d="M2614 2215 c-12 -18 -26 -25 -53 -27 l-36 -1 33 -4 c37 -5 36 -3 17
-50 -21 -50 -20 -93 3 -92 10 0 12 3 5 6 -17 6 -16 30 3 86 l16 47 61 2 62 2
-58 3 -59 4 16 25 c9 13 14 24 11 24 -2 0 -12 -11 -21 -25z"/>
<path d="M3374 2215 c-12 -18 -26 -25 -53 -27 l-36 -1 33 -4 c25 -3 32 -8 28
-20 -3 -8 -6 -18 -6 -23 0 -5 -12 -23 -27 -42 -15 -18 -20 -27 -10 -19 15 12
17 11 17 -13 0 -18 5 -26 18 -25 10 0 12 3 5 6 -17 6 -16 30 3 86 l16 47 61 2
62 2 -58 3 -59 4 16 25 c9 13 14 24 11 24 -2 0 -12 -11 -21 -25z"/>
<path d="M2057 2187 l-17 -32 20 24 c17 20 26 41 18 41 -2 0 -11 -15 -21 -33z"/>
<path d="M1999 2145 c-38 -85 -10 -132 47 -80 l29 26 -32 -21 c-55 -39 -74 1
-25 54 15 17 19 24 10 17 -21 -16 -24 -1 -8 30 6 10 8 19 5 19 -3 0 -15 -20
-26 -45z"/>
<path d="M1657 2112 c1 -8 3 -19 3 -25 0 -7 4 -6 10 3 12 19 13 33 1 26 -5 -4
-11 -3 -14 1 -2 5 -2 2 0 -5z"/>
<path d="M1753 2102 c-23 -31 -15 -62 15 -62 16 1 16 1 0 11 -25 14 -22 36 6
43 29 7 43 36 18 36 -10 0 -28 -13 -39 -28z m37 14 c0 -3 -4 -8 -10 -11 -5 -3
-10 -1 -10 4 0 6 5 11 10 11 6 0 10 -2 10 -4z"/>
<path d="M2185 2120 c-3 -6 1 -7 9 -4 9 3 16 3 16 0 0 -4 -12 -11 -26 -16 -31
-12 -31 -53 1 -58 18 -2 18 -2 3 8 -25 16 -22 37 6 44 30 7 43 36 16 36 -10 0
-22 -4 -25 -10z"/>
<path d="M2625 2089 c-15 -23 -22 -38 -17 -35 6 3 13 2 17 -4 3 -5 14 -10 23
-10 16 1 16 1 0 11 -25 14 -22 36 6 43 30 7 43 36 17 36 -10 0 -30 -18 -46
-41z m45 27 c0 -3 -4 -8 -10 -11 -5 -3 -10 -1 -10 4 0 6 5 11 10 11 6 0 10 -2
10 -4z"/>
<path d="M2966 2108 c-19 -26 -21 -68 -4 -68 6 0 2 -10 -9 -22 -21 -24 -64
-91 -47 -73 22 22 69 91 71 104 1 7 7 19 14 25 9 8 10 4 4 -19 -3 -16 -5 -28
-3 -25 2 3 12 15 23 28 12 15 15 22 6 20 -7 -2 -16 3 -19 11 -3 8 0 11 7 7 6
-4 11 -2 11 3 0 21 -18 11 -39 -21 -17 -27 -21 -29 -21 -12 0 23 18 49 40 57
12 4 12 6 -2 6 -9 1 -24 -9 -32 -21z"/>
<path d="M3076 2111 c-23 -25 -17 -65 9 -69 18 -2 18 -2 3 8 -25 16 -22 37 6
44 13 3 26 13 30 21 8 22 -27 19 -48 -4z m34 5 c0 -3 -4 -8 -10 -11 -5 -3 -10
-1 -10 4 0 6 5 11 10 11 6 0 10 -2 10 -4z"/>
<path d="M1834 2088 c-16 -18 -22 -27 -13 -20 9 6 18 10 20 8 2 -2 12 7 22 20
26 35 6 29 -29 -8z"/>
<path d="M2257 2092 c-28 -29 -35 -56 -16 -68 17 -10 36 17 42 59 3 20 5 37 3
37 -1 0 -14 -13 -29 -28z m9 -37 c-6 -24 -26 -36 -26 -15 0 6 5 10 11 10 5 0
7 5 4 10 -3 6 -3 15 0 21 11 17 18 2 11 -26z"/>
<path d="M2414 2083 c-15 -21 -24 -35 -19 -31 4 4 14 3 20 -2 8 -7 18 -3 31
13 19 22 19 22 -2 4 -23 -19 -40 -12 -21 9 31 35 37 44 29 44 -5 0 -22 -17
-38 -37z"/>
<path d="M2830 2099 c-7 -11 -9 -23 -6 -27 3 -3 6 0 6 6 0 6 7 18 16 26 8 9
11 16 5 16 -6 0 -15 -9 -21 -21z"/>
<path d="M3154 2088 c-16 -18 -21 -26 -11 -19 15 12 17 11 17 -10 0 -22 3 -21
34 16 l34 40 7 -27 c4 -16 11 -28 16 -28 4 0 3 14 -2 30 -13 36 -16 36 -47 8
l-24 -23 6 23 c10 29 5 28 -30 -10z m24 -23 c-3 -3 -9 2 -12 12 -6 14 -5 15 5
6 7 -7 10 -15 7 -18z"/>
<path d="M1888 2105 c-9 -10 5 -65 17 -65 7 0 23 9 36 21 l24 21 -25 -16 c-13
-9 -27 -16 -31 -16 -12 0 -16 49 -5 54 8 3 8 5 0 5 -6 1 -13 -1 -16 -4z"/>
<path d="M2468 2105 c-9 -10 5 -65 17 -65 7 0 23 9 36 21 l24 21 -25 -16 c-13
-9 -27 -16 -31 -16 -12 0 -16 49 -5 54 8 3 8 5 0 5 -6 1 -13 -1 -16 -4z"/>
<path d="M2868 2105 c-9 -10 5 -65 17 -65 7 0 23 9 36 21 l24 21 -25 -16 c-13
-9 -27 -16 -31 -16 -12 0 -16 49 -5 54 8 3 8 5 0 5 -6 1 -13 -1 -16 -4z"/>
<path d="M2704 2078 l-19 -23 23 19 c21 18 27 26 19 26 -2 0 -12 -10 -23 -22z"/>
<path d="M1860 2065 c-7 -8 -17 -12 -23 -8 -6 4 -7 1 -3 -6 6 -9 13 -8 27 5
10 9 19 19 19 21 0 7 -8 2 -20 -12z"/>
<path d="M2840 2065 c-7 -8 -17 -12 -23 -8 -6 4 -7 1 -3 -6 6 -9 13 -8 27 5
10 9 19 19 19 21 0 7 -8 2 -20 -12z"/>
<path d="M3369 2063 c-13 -16 -12 -17 4 -4 16 13 21 21 13 21 -2 0 -10 -8 -17
-17z"/>
<path d="M1652 2060 c7 -21 30 -23 53 -5 19 16 19 16 -3 5 -18 -9 -27 -8 -39
2 -14 11 -15 11 -11 -2z"/>
<path d="M2960 1970 c-13 -28 -32 -57 -42 -67 -17 -15 -18 -15 -19 8 0 13 -3
18 -6 11 -3 -7 -2 -20 1 -29 6 -14 9 -14 27 3 22 20 73 113 66 120 -2 2 -14
-19 -27 -46z"/>
</g>
</svg>
